<svg viewBox="0 0 135.89209 135.89209" xmlns="http://www.w3.org/2000/svg" data-name="Calque 1" id="uuid-24f570e6-aecf-4141-9565-5ee5b3f811de">
  <defs>
    <style>
      .uuid-47c1eb33-f2b1-47da-88cb-62b255b71ad4 {
        fill: #fff;
      }
    </style>
  </defs>
  <path d="M67.9458,135.89209C30.48047,135.89209,0,105.41162,0,67.9458S30.48047,0,67.9458,0s67.94629,30.48047,67.94629,67.9458-30.48047,67.94629-67.94629,67.94629ZM67.9458,7C34.34033,7,7,34.34033,7,67.9458s27.34033,60.94629,60.9458,60.94629,60.94629-27.34033,60.94629-60.94629S101.55176,7,67.9458,7Z" class="uuid-47c1eb33-f2b1-47da-88cb-62b255b71ad4"></path>
  <g>
    <path d="M98.92496,75.94323l-18.18066,4.84277c-.84082-1.34521-2.09668-2.27197-3.65332-2.69092l-9.58496-2.59473c-.40137-.10889-.6875-.26514-.98633-.53809-1.20508-1.10303-2.80566-1.99268-4.62891-2.57324-3.03027-.95898-5.93652-.78027-8.64258.53418l-11.11816,5.42188-.35742-.83154c-.42285-.98096-1.20898-1.74463-2.21484-2.15137-.99512-.4043-2.09473-.39111-3.0918.03516l-5.19141,2.23193c-2.04395.87402-2.99316,3.25195-2.11719,5.30127l9.2998,21.65918c.63672,1.48633,2.0957,2.44727,3.71582,2.44727.56055,0,1.0957-.1123,1.58301-.33008l5.19238-2.23242c.97949-.42188,1.74414-1.20898,2.15234-2.21484.40332-.99707.39062-2.09473-.03613-3.0918l-.37891-.88867,3.49609-1.74219c1.06641-.5332,2.06055-.62012,3.13086-.27734l10.23633,3.28809c2.90527.93652,5.73828.86133,8.60059-.22656l25.60156-9.77051c2.1748-.83203,3.78711-2.40771,4.66211-4.55908.21973-.54639.38086-1.08789.47559-1.59619.4707-2.20898-.2207-4.37158-1.89844-5.93311-1.65527-1.54297-3.86523-2.09717-6.06543-1.51904ZM49.56949,95.60534l-6.25391-14.56738,11.24316-5.48047c2.03711-.99219,4.15332-1.11475,6.47266-.37646,1.40332.44385,2.62695,1.11475,3.53613,1.93848.63574.58447,1.33203.9668,2.19238,1.20361l9.58398,2.59424c.93262.25244,1.63281.81396,2.08203,1.66846.45605.86621.52051,1.73535.1709,2.72021-.57324,1.65039-2.34473,2.57812-4.03809,2.11572l-13.46191-3.70947c-.77832-.21045-1.57715.24414-1.79785,1.01807-.21094.77051.24316,1.57666,1.0166,1.79785l13.46191,3.70898c3.26855.89355,6.5127-.93164,7.60352-4.02979.30566-.87891.41699-1.76758.33105-2.64746l17.97559-4.78613c1.20898-.32324,2.38965-.03076,3.31738.82715.91602.85596,1.29102,2.00977,1.05566,3.25-.0625.3291-.1709.68604-.31836,1.05664-.5752,1.40771-1.58301,2.39404-2.99609,2.93066l-25.59766,9.771c-2.22461.8457-4.40527.90527-6.66602.17676l-10.23633-3.28809c-.71094-.22754-1.42285-.3418-2.13281-.3418-1.0752,0-2.14453.26172-3.19824.7832l-3.3457,1.66602ZM48.42301,101.18444c-.11133.27832-.32422.49707-.59668.61426l-5.19336,2.22656c-.27148.11719-.57324.12012-.85059.00977-.27832-.11035-.49609-.32129-.61328-.59473l-9.28906-21.66113c-.11816-.27197-.12207-.57373-.01172-.8501.11133-.27734.32324-.49414.59766-.61084l5.19238-2.23291c.14062-.06104.29004-.09131.43848-.09131.13965,0,.28027.02637.41406.08008.27637.11084.49219.32227.60938.59668l9.2998,21.65625c.11426.27051.11523.57422.00293.85742Z" class="uuid-47c1eb33-f2b1-47da-88cb-62b255b71ad4"></path>
    <path d="M65.23355,66.67809h21.99805c1.76855,3.5415,5.41016,5.8125,9.36719,5.8125,5.76855,0,10.46191-4.69336,10.46191-10.4624,0-5.76855-4.69727-10.46191-10.47168-10.46191-1.02832,0-2.04785.15283-3.03809.45557-1.90625-2.49854-4.41699-4.37354-7.32324-5.47461,2.46289-1.84131,3.95605-4.77295,3.95605-7.875,0-5.41309-4.40332-9.81738-9.81641-9.81738s-9.81738,4.4043-9.81738,9.81738c0,3.10205,1.49023,6.03271,3.94629,7.87354-6.45605,2.43213-10.72559,8.54785-10.72559,15.52393v3.146c.00586.80664.66211,1.4624,1.46289,1.4624ZM80.37027,48.39099c4.0752,0,7.85938,1.77979,10.46875,4.90186-2.91699,1.92529-4.70605,5.21875-4.70605,8.729,0,.58447.04883,1.1626.14551,1.72607l-19.58691-.00293v-1.67578c0-7.54199,6.13672-13.67822,13.67871-13.67822ZM81.37711,45.49597c-.66113-.03223-1.44043-.04736-1.9248.00391-3.41016-.44336-5.98145-3.37988-5.98145-6.83105,0-3.8042,3.09473-6.89941,6.89941-6.89941s6.89941,3.09521,6.89941,6.89941c0,3.44336-2.57227,6.38037-5.89258,6.82715ZM89.05386,62.02819c0-4.15527,3.37988-7.53564,7.53516-7.53564s7.53516,3.38037,7.53516,7.53564c0,4.15479-3.37988,7.53516-7.53516,7.53516s-7.53516-3.38037-7.53516-7.53516Z" class="uuid-47c1eb33-f2b1-47da-88cb-62b255b71ad4"></path>
    <path d="M94.15347,65.89245c.27441.2793.6416.43311,1.03418.43311.38086,0,.75586-.15625,1.03027-.42969l5.67578-5.67529c.56738-.57275.56641-1.50098-.00391-2.0708-.57129-.56689-1.50098-.56641-2.06836.00146l-4.64355,4.64355-1.80859-1.80811c-.57227-.56836-1.5-.56641-2.07031.00293-.56738.57275-.56641,1.50098.00195,2.06934l2.85254,2.8335Z" class="uuid-47c1eb33-f2b1-47da-88cb-62b255b71ad4"></path>
  </g>
</svg>